<?xml version="1.0" encoding="UTF-8" standalone="no"?>
<!-- Generator: Adobe Illustrator 19.1.0, SVG Export Plug-In . SVG Version: 6.00 Build 0)  -->

<svg
   xmlns:dc="http://purl.org/dc/elements/1.1/"
   xmlns:cc="http://creativecommons.org/ns#"
   xmlns:rdf="http://www.w3.org/1999/02/22-rdf-syntax-ns#"
   xmlns:svg="http://www.w3.org/2000/svg"
   xmlns="http://www.w3.org/2000/svg"
   xmlns:sodipodi="http://sodipodi.sourceforge.net/DTD/sodipodi-0.dtd"
   xmlns:inkscape="http://www.inkscape.org/namespaces/inkscape"
   height="103.6"
   width="1404.3167"
   sodipodi:docname="footer.svg"
   inkscape:version="0.91 r13725"
   xml:space="preserve"
   viewBox="0 0 1404.3167 103.6"
   y="0px"
   x="0px"
   id="Layer_3"
   version="1.1"><metadata
     id="metadata13"><rdf:RDF><cc:Work
         rdf:about=""><dc:format>image/svg+xml</dc:format><dc:type
           rdf:resource="http://purl.org/dc/dcmitype/StillImage" /><dc:title></dc:title></cc:Work></rdf:RDF></metadata><defs
     id="defs11"><clipPath
       clipPathUnits="userSpaceOnUse"
       id="clipPath3355"><rect
         style="fill:#808080"
         id="rect3357"
         width="1445.8737"
         height="135.39954"
         x="715.68329"
         y="730.57892" /></clipPath><clipPath
       clipPathUnits="userSpaceOnUse"
       id="clipPath3367"><rect
         style="fill:#808080"
         id="rect3369"
         width="1409.8275"
         height="114.54839"
         x="-2131.8374"
         y="735.79999"
         transform="scale(-1,1)" /></clipPath></defs><sodipodi:namedview
     inkscape:current-layer="Layer_3"
     inkscape:window-maximized="0"
     inkscape:window-y="46"
     inkscape:window-x="0"
     inkscape:cy="-59.987594"
     inkscape:cx="345.99502"
     inkscape:zoom="0.82718152"
     fit-margin-bottom="0"
     fit-margin-right="0"
     fit-margin-left="0"
     fit-margin-top="0"
     showgrid="false"
     id="namedview9"
     inkscape:window-height="588"
     inkscape:window-width="1005"
     inkscape:pageshadow="2"
     inkscape:pageopacity="0"
     guidetolerance="10"
     gridtolerance="10"
     objecttolerance="10"
     borderopacity="1"
     bordercolor="#666666"
     pagecolor="#ffffff" /><style
     type="text/css"
     id="style3">
	.st0{fill:#1954A6;}
</style><g
     id="g5"
     transform="matrix(-1.0120655,0,0,1,2141.2052,-738.2)"
     clip-path="url(#clipPath3367)"><path
       class="st0"
       d="m 2120,774.2 -413.8,0 c -3.8,0 -7,-3.1 -7,-7 l 0,-22 c 0,-3.8 -3.1,-7 -7,-7 l -964.6,0 c -3.8,0 -7,3.1 -7,7 l 0,21.6 c 0,3.8 -3.1,7 -7,7 l -505.6,0 c -3.8,0 -7,-3.1 -7,-7 l 0,-21.6 c 0,-3.8 -3.1,-7 -7,-7 l -194,0 0,103.6 2120,0 0,-67.6 z"
       id="path7"
       inkscape:connector-curvature="0"
       style="fill:#1954a6" /></g></svg>