<?xml version="1.0" encoding="UTF-8" standalone="no"?>
<!-- Created with Inkscape (http://www.inkscape.org/) -->

<svg
   xmlns:osb="http://www.openswatchbook.org/uri/2009/osb"
   xmlns:dc="http://purl.org/dc/elements/1.1/"
   xmlns:cc="http://creativecommons.org/ns#"
   xmlns:rdf="http://www.w3.org/1999/02/22-rdf-syntax-ns#"
   xmlns:svg="http://www.w3.org/2000/svg"
   xmlns="http://www.w3.org/2000/svg"
   xmlns:xlink="http://www.w3.org/1999/xlink"
   xmlns:sodipodi="http://sodipodi.sourceforge.net/DTD/sodipodi-0.dtd"
   xmlns:inkscape="http://www.inkscape.org/namespaces/inkscape"
   width="720mm"
   height="720mm"
   viewBox="0 0 2551.1811 2551.1811"
   id="svg2"
   version="1.1"
   inkscape:version="0.91 r13725"
   sodipodi:docname="fylldhome.svg">
  <defs
     id="defs4">
    <linearGradient
       id="linearGradient5831"
       osb:paint="solid">
      <stop
         style="stop-color:#1954a6;stop-opacity:1;"
         offset="0"
         id="stop5833" />
    </linearGradient>
    <linearGradient
       id="linearGradient4146"
       osb:paint="solid"
       gradientTransform="translate(1577.7624,-2995.4234)">
      <stop
         style="stop-color:#ffffff;stop-opacity:1;"
         offset="0"
         id="stop4148" />
    </linearGradient>
    <linearGradient
       inkscape:collect="always"
       xlink:href="#linearGradient4146"
       id="linearGradient4150"
       x1="-606.21429"
       y1="-827.63776"
       x2="-168.07144"
       y2="-827.63776"
       gradientUnits="userSpaceOnUse" />
    <linearGradient
       inkscape:collect="always"
       xlink:href="#linearGradient5831"
       id="linearGradient5835"
       x1="1184.3049"
       y1="-666.91742"
       x2="1494.6198"
       y2="-666.91742"
       gradientUnits="userSpaceOnUse"
       gradientTransform="matrix(0.48698143,0,0,1.1391259,1202.2243,-82.991569)" />
  </defs>
  <sodipodi:namedview
     id="base"
     pagecolor="#ffffff"
     bordercolor="#666666"
     borderopacity="1.0"
     inkscape:pageopacity="0.0"
     inkscape:pageshadow="2"
     inkscape:zoom="0.24748737"
     inkscape:cx="1814.1357"
     inkscape:cy="1108.7397"
     inkscape:document-units="px"
     inkscape:current-layer="layer1"
     showgrid="false"
     borderlayer="true"
     inkscape:window-width="1536"
     inkscape:window-height="801"
     inkscape:window-x="-8"
     inkscape:window-y="-8"
     inkscape:window-maximized="1" />
  <metadata
     id="metadata7">
    <rdf:RDF>
      <cc:Work
         rdf:about="">
        <dc:format>image/svg+xml</dc:format>
        <dc:type
           rdf:resource="http://purl.org/dc/dcmitype/StillImage" />
        <dc:title></dc:title>
      </cc:Work>
    </rdf:RDF>
  </metadata>
  <g
     inkscape:label="Layer 1"
     inkscape:groupmode="layer"
     id="layer1"
     transform="translate(0,1498.8189)">
    <rect
       style="fill:url(#linearGradient4150);fill-rule:evenodd;stroke:#000000;stroke-width:1px;stroke-linecap:butt;stroke-linejoin:miter;stroke-opacity:1;fill-opacity:1"
       id="rect3344"
       width="437.14285"
       height="548.57141"
       x="-605.71429"
       y="-1101.9235" />
    <path
       style="fill:none;fill-rule:evenodd;stroke:#000000;stroke-width:1px;stroke-linecap:butt;stroke-linejoin:miter;stroke-opacity:1"
       d="m 1274.2857,-1524.7806 c 0,-21.9048 0,-43.8095 0,-65.7143 0,-4.7619 0,-9.5238 0,-14.2857 0,-1.9048 0.462,-3.8664 0,-5.7143 -0.5165,-2.066 -2.4395,-3.626 -2.8571,-5.7143 -0.6035,-3.0171 0,-15.868 0,-20 0,-1.9047 0.6023,-3.9073 0,-5.7143 -0.4259,-1.2777 -2.2548,-1.6524 -2.8572,-2.8571 -0.6272,-1.2545 0,-16.038 0,-20 0,-1.4941 0.3757,-10.6773 0,-11.4286 -0.6023,-1.2047 -1.6524,-2.2548 -2.8571,-2.8571 -0.8518,-0.4259 -2.1837,0.6734 -2.8572,0 -0.6734,-0.6735 -0.6734,-2.1837 0,-2.8572 1.5059,-1.5058 3.9424,-1.6758 5.7143,-2.8571 1.1207,-0.7471 1.6525,-2.2548 2.8572,-2.8571 0.8518,-0.426 2.1837,0.6734 2.8571,0 1.5059,-1.5059 1.3513,-4.2085 2.8572,-5.7143 0.6734,-0.6735 2.0053,0.4259 2.8571,0 3.5306,-1.7653 2.8571,-2.7585 2.8571,-5.7143"
       id="path4152"
       inkscape:connector-curvature="0" />
    <path
       style="fill:none;fill-rule:evenodd;stroke:#000000;stroke-width:1px;stroke-linecap:butt;stroke-linejoin:miter;stroke-opacity:1"
       d="m 965.71429,-1607.6377 51.42861,-20"
       id="path4154"
       inkscape:connector-curvature="0" />
    <path
       style="fill:url(#linearGradient4146);fill-rule:evenodd;stroke:#1954a6;stroke-width:40;stroke-linecap:butt;stroke-linejoin:miter;stroke-opacity:1;stroke-miterlimit:4;stroke-dasharray:none"
       d="m 271.42857,-1690.4949 11.42857,40"
       id="path4156"
       inkscape:connector-curvature="0" />
    <rect
       style="fill:none;stroke:#1954a6;stroke-width:1;stroke-miterlimit:4;stroke-dasharray:none;stroke-opacity:1"
       id="rect4174"
       width="137.38075"
       height="589.92908"
       x="-375.77673"
       y="54.33149" />
    <rect
       style="fill:none;stroke:#1954a6;stroke-width:1;stroke-miterlimit:4;stroke-dasharray:none;stroke-opacity:1"
       id="rect4176"
       width="145.46196"
       height="440.42651"
       x="-468.71078"
       y="-50.724297" />
    <rect
       style="fill:none;stroke:none;stroke-width:1;stroke-miterlimit:4;stroke-dasharray:none;stroke-opacity:1"
       id="rect4178"
       width="375.77673"
       height="759.6347"
       x="-484.87323"
       y="-357.81073" />
    <rect
       style="fill:none;stroke:none;stroke-width:1;stroke-miterlimit:4;stroke-dasharray:none;stroke-opacity:1"
       id="rect4180"
       width="185.86807"
       height="420.22345"
       x="-436.38589"
       y="664.46356" />
    <rect
       style="fill:none;stroke:none;stroke-width:1;stroke-miterlimit:4;stroke-dasharray:none;stroke-opacity:1"
       id="rect4182"
       width="28.284271"
       height="1208.1425"
       x="3212.2852"
       y="-745.70929" />
    <rect
       style="fill:none;stroke:none;stroke-width:1;stroke-miterlimit:4;stroke-dasharray:none;stroke-opacity:1"
       id="rect4184"
       width="715.18799"
       height="16.162441"
       x="3111.2698"
       y="292.72748" />
    <rect
       style="fill:none;stroke:none;stroke-width:1;stroke-miterlimit:4;stroke-dasharray:none;stroke-opacity:1"
       id="rect4186"
       width="416.18286"
       height="48.487324"
       x="3155.7166"
       y="377.58038" />
    <rect
       style="fill:none;stroke:none;stroke-width:1;stroke-miterlimit:4;stroke-dasharray:none;stroke-opacity:1"
       id="rect4188"
       width="8.0812206"
       height="565.68542"
       x="3220.3662"
       y="-353.77008" />
    <rect
       style="fill:#b80000;stroke:none;stroke-width:1;stroke-miterlimit:4;stroke-dasharray:none;stroke-opacity:1;fill-opacity:0"
       id="rect4190"
       width="674.78192"
       height="925.29974"
       x="856.60938"
       y="163.42805" />
    <rect
       style="fill:#ffffff;fill-opacity:1;stroke:none;stroke-width:1;stroke-miterlimit:4;stroke-dasharray:none;stroke-opacity:1"
       id="rect4200"
       width="646.49762"
       height="1022.2744"
       x="735.39105"
       y="82.615791" />
    <rect
       style="fill:url(#linearGradient4146);fill-opacity:1;stroke:#1954a6;stroke-width:80;stroke-miterlimit:4;stroke-dasharray:none;stroke-opacity:1"
       id="rect4324"
       width="325.05209"
       height="338.68658"
       x="1609.6808"
       y="50.296108" />
    <path
       style="fill:#1954a6;fill-rule:evenodd;stroke:#1954a6;stroke-width:78.79064941;stroke-linecap:butt;stroke-linejoin:miter;stroke-miterlimit:4;stroke-dasharray:none;stroke-opacity:1;fill-opacity:1"
       d="M 143.88737,-372.69904 1271.9239,-1409.2366 2389.4178,-382.38628"
       id="path5743"
       inkscape:connector-curvature="0" />
    <path
       style="fill:#1954a6;fill-rule:evenodd;stroke:#1954a6;stroke-width:68.90292358;stroke-linecap:butt;stroke-linejoin:miter;stroke-miterlimit:4;stroke-dasharray:none;stroke-opacity:1;fill-opacity:1"
       d="m 1734.5878,-966.3872 0,-212.2104 241.5663,0 -2.8089,362.73167 0,0 -2.809,0"
       id="path5747"
       inkscape:connector-curvature="0" />
    <path
       style="fill:#1954a6;fill-rule:evenodd;stroke:#1954a6;stroke-width:79.80381012;stroke-linecap:butt;stroke-linejoin:miter;stroke-miterlimit:4;stroke-dasharray:none;stroke-opacity:1;fill-opacity:1"
       d="m 118.15811,-356.2092 258.24872,0 0,1360 345.23773,0 0,-948.571469 685.03854,0 0,948.571469 752.9989,0 0,-1360.00005 279.9961,0"
       id="path5757"
       inkscape:connector-curvature="0" />
    <path
       style="fill:none;fill-rule:evenodd;stroke:#1954a6;stroke-width:80;stroke-linecap:butt;stroke-linejoin:miter;stroke-miterlimit:4;stroke-dasharray:none;stroke-opacity:1"
       d="m 429.6912,-635.18427 -323.24882,278.8021 165.66502,0"
       id="path5799"
       inkscape:connector-curvature="0" />
    <path
       style="fill:none;fill-rule:evenodd;stroke:#1954a6;stroke-width:80;stroke-linecap:butt;stroke-linejoin:miter;stroke-miterlimit:4;stroke-dasharray:none;stroke-opacity:1"
       d="m 2113.9557,-633.9431 324.3576,277.51119 -165.6637,0.66046"
       id="path5799-7"
       inkscape:connector-curvature="0" />
    <rect
       style="fill:url(#linearGradient5835);fill-opacity:1;stroke:#1954a6;stroke-width:59.58433151;stroke-miterlimit:4;stroke-dasharray:none;stroke-opacity:1"
       id="rect5829"
       width="112.15902"
       height="289.97412"
       x="1798.4381"
       y="-987.68152" />
    <path
       style="fill:none;fill-rule:evenodd;stroke:#1954a6;stroke-width:1;stroke-linecap:butt;stroke-linejoin:miter;stroke-opacity:1;stroke-miterlimit:4;stroke-dasharray:none"
       d="m 420.22346,-369.9326 c 25.59054,0 51.18107,0 76.7716,0 9.42809,0 18.88014,-0.6717 28.28427,0 9.49961,0.6785 18.78851,3.3102 28.28427,4.0406 67.64961,5.2038 -36.25325,-9.5403 68.69038,0 14.99662,1.3633 29.44026,6.8307 44.44671,8.0812 17.44883,1.4541 35.01862,0 52.52793,0 20.20305,0 40.4061,0 60.60916,0 22.89679,0 45.80475,-0.7151 68.69037,0 20.23802,0.6325 40.37416,3.318 60.60915,4.0406 17.49816,0.625 35.01862,0 52.52794,0 20.20305,0 40.40606,0 60.60916,0 16.1624,0 32.3432,0.7688 48.4873,0 12.1826,-0.5801 24.1879,-3.364 36.3655,-4.0406 24.2063,-1.3448 48.5489,1.7273 72.731,0 22.9611,-1.64 18.4251,-5.5275 40.4061,-12.1218 6.5781,-1.9734 13.5404,-2.3749 20.203,-4.0406 4.1321,-1.033 7.9206,-3.3404 12.1219,-4.0406 3.9856,-0.6643 8.1124,0.5012 12.1218,0 6.8147,-0.8519 13.3773,-3.2822 20.2031,-4.0406 6.234,-0.6927 31.6033,0.8658 36.3654,0 8.381,-1.5238 15.8244,-6.786 24.2437,-8.0813 9.3185,-1.4336 18.8745,0.5882 28.2843,0 127.6313,-7.9769 -39.5837,-0.063 64.6497,-8.0812 14.5911,-1.1224 48.8241,1.6836 60.6092,0 7.1802,-1.0257 13.0908,-6.6587 20.203,-8.0812 6.6036,-1.3207 13.4687,0 20.2031,0 4.0406,0 8.0812,0 12.1218,0 5.3875,0 10.9358,1.3067 16.1625,0 1.3066,-0.3267 -0.9524,-3.0882 0,-4.0406 0.9524,-0.9524 2.6937,0 4.0406,0 1.3469,0 2.6937,0 4.0406,0 6.7343,0 13.6291,-1.4609 20.203,0 5.88,1.3067 10.2825,6.7746 16.1625,8.0812 6.574,1.4609 13.4687,0 20.203,0 20.2031,0 40.4061,0 60.6092,0 12.1218,0 24.2436,0 36.3655,0 8.0812,0 16.1862,-0.6198 24.2436,0 9.4958,0.7305 18.7934,3.2497 28.2843,4.0406 6.7111,0.5593 13.4687,0 20.2031,0 6.7343,1.3469 13.4043,3.0694 20.203,4.0406 2.6667,0.381 5.3875,0 8.0812,0 6.7344,0 13.4687,0 20.2031,0 4.0406,0 8.1218,-0.5714 12.1218,0 26.673,3.8105 6.1334,3.3914 32.3249,12.1219 6.5153,2.1717 13.3694,3.3572 20.2031,4.0406 6.7009,0.6701 13.5021,-0.6701 20.203,0 6.8336,0.6833 13.3884,3.1888 20.2031,4.0406 4.0094,0.5012 8.0812,0 12.1218,0 9.4281,0 18.8562,0 28.2843,0 0.9799,0 11.9918,-0.13 12.1218,0 0.9524,0.9524 -0.9524,3.0882 0,4.0406 0.3922,0.3922 18.6633,0 20.203,0 1.5973,0 18.4774,0.8628 20.2031,0 1.7037,-0.8518 2.2336,-3.4383 4.0406,-4.0406 3.8333,-1.2778 8.0812,0 12.1218,0 8.0813,0 16.1625,0 24.2437,0 5.3875,0 10.775,0 16.1624,0 1.3469,0 4.0406,-1.3469 4.0406,0 0,1.3469 -5.3874,0 -4.0406,0 2.6938,0 5.3875,0 8.0813,0 1.3468,0 3.0882,-0.9524 4.0406,0 0.9523,0.9524 0,2.6937 0,4.0406"
       id="path6036"
       inkscape:connector-curvature="0" />
    <path
       style="fill:none;fill-rule:evenodd;stroke:#1954a6;stroke-width:80;stroke-linecap:butt;stroke-linejoin:miter;stroke-opacity:1;stroke-miterlimit:4;stroke-dasharray:none"
       d="m 412.14224,-365.892 1713.21876,0"
       id="path6040"
       inkscape:connector-curvature="0" />
    <path
       style="fill:none;fill-rule:evenodd;stroke:#000000;stroke-width:1px;stroke-linecap:butt;stroke-linejoin:miter;stroke-opacity:1"
       d="m 3192.0821,-321.4453 197.9899,68.6904"
       id="path6042"
       inkscape:connector-curvature="0" />
    <rect
       style="fill:url(#linearGradient4146);fill-opacity:1;stroke:#1954a6;stroke-width:80;stroke-miterlimit:4;stroke-dasharray:none;stroke-opacity:1"
       id="rect4324-2"
       width="325.05209"
       height="338.68658"
       x="1609.681"
       y="50.295616" />
  </g>
</svg>
