<?xml version="1.0" encoding="UTF-8" standalone="no"?>
<!-- Created with Inkscape (http://www.inkscape.org/) -->

<svg
   xmlns:osb="http://www.openswatchbook.org/uri/2009/osb"
   xmlns:dc="http://purl.org/dc/elements/1.1/"
   xmlns:cc="http://creativecommons.org/ns#"
   xmlns:rdf="http://www.w3.org/1999/02/22-rdf-syntax-ns#"
   xmlns:svg="http://www.w3.org/2000/svg"
   xmlns="http://www.w3.org/2000/svg"
   xmlns:xlink="http://www.w3.org/1999/xlink"
   xmlns:sodipodi="http://sodipodi.sourceforge.net/DTD/sodipodi-0.dtd"
   xmlns:inkscape="http://www.inkscape.org/namespaces/inkscape"
   width="750"
   height="750"
   id="svg2"
   version="1.1"
   inkscape:version="0.48.4 r9939"
   inkscape:export-filename="/home/moss/Desktop/ey.png"
   inkscape:export-xdpi="90"
   inkscape:export-ydpi="90"
   sodipodi:docname="map-unfilled.svg">
  <defs
     id="defs4">
    <linearGradient
       id="linearGradient5367"
       osb:paint="solid"
       gradientTransform="matrix(0.04038825,0,0,0.04038825,755.5931,583.42097)">
      <stop
         style="stop-color:#ffffff;stop-opacity:1;"
         offset="0"
         id="stop5369" />
    </linearGradient>
    <linearGradient
       id="linearGradient5282"
       osb:paint="solid">
      <stop
         style="stop-color:#24a0d8;stop-opacity:1;"
         offset="0"
         id="stop5284" />
    </linearGradient>
    <linearGradient
       id="linearGradient5272"
       osb:paint="solid"
       gradientTransform="translate(3094.7845,233.18741)">
      <stop
         style="stop-color:#1954a6;stop-opacity:1;"
         offset="0"
         id="stop5274" />
    </linearGradient>
    <linearGradient
       inkscape:collect="always"
       xlink:href="#linearGradient5272"
       id="linearGradient5276"
       x1="-1157.6927"
       y1="-344.28571"
       x2="-485.16422"
       y2="-344.28571"
       gradientUnits="userSpaceOnUse" />
    <linearGradient
       inkscape:collect="always"
       xlink:href="#linearGradient5282"
       id="linearGradient5286"
       x1="-851.97858"
       y1="-534.28571"
       x2="-599.45001"
       y2="-534.28571"
       gradientUnits="userSpaceOnUse" />
    <linearGradient
       id="linearGradient5272-0"
       osb:paint="solid"
       gradientTransform="matrix(591.11928,0,0,591.11928,-401330.96,-104851.93)">
      <stop
         style="stop-color:#1954a6;stop-opacity:1;"
         offset="0"
         id="stop5274-1" />
    </linearGradient>
    <linearGradient
       id="linearGradient5414"
       osb:paint="solid"
       gradientTransform="translate(-2,54)">
      <stop
         style="stop-color:#1954a6;stop-opacity:1;"
         offset="0"
         id="stop5416" />
    </linearGradient>
    <linearGradient
       id="linearGradient5272-0-0"
       osb:paint="solid"
       gradientTransform="matrix(-36.944955,0,0,36.944955,26887.734,-6544.3907)">
      <stop
         style="stop-color:#1954a6;stop-opacity:1;"
         offset="0"
         id="stop5274-1-5" />
    </linearGradient>
    <linearGradient
       id="linearGradient5272-0-0-3"
       osb:paint="solid"
       gradientTransform="matrix(-36.944955,0,0,36.944955,27583.892,-6730.1033)">
      <stop
         style="stop-color:#1954a6;stop-opacity:1;"
         offset="0"
         id="stop5274-1-5-5" />
    </linearGradient>
    <linearGradient
       id="linearGradient5367-8"
       osb:paint="solid"
       gradientTransform="matrix(-235.23456,0,0,235.23456,831345.32,-99782.332)">
      <stop
         style="stop-color:#ffffff;stop-opacity:1;"
         offset="0"
         id="stop5369-6" />
    </linearGradient>
  </defs>
  <sodipodi:namedview
     id="base"
     pagecolor="#ffffff"
     bordercolor="#666666"
     borderopacity="1.0"
     inkscape:pageopacity="0.0"
     inkscape:pageshadow="2"
     inkscape:zoom="2"
     inkscape:cx="398.24495"
     inkscape:cy="383.31524"
     inkscape:document-units="px"
     inkscape:current-layer="layer6"
     showgrid="false"
     inkscape:window-width="1855"
     inkscape:window-height="1056"
     inkscape:window-x="65"
     inkscape:window-y="24"
     inkscape:window-maximized="1" />
  <metadata
     id="metadata7">
    <rdf:RDF>
      <cc:Work
         rdf:about="">
        <dc:format>image/svg+xml</dc:format>
        <dc:type
           rdf:resource="http://purl.org/dc/dcmitype/StillImage" />
        <dc:title />
      </cc:Work>
    </rdf:RDF>
  </metadata>
  <g
     inkscape:groupmode="layer"
     id="layer2"
     inkscape:label="Filled Background"
     style="display:inline"
     transform="translate(0,30)">
    <rect
       style="fill:url(#linearGradient5272);fill-opacity:1;stroke:#24a0d8;stroke-width:0;stroke-miterlimit:4;stroke-opacity:1;stroke-dasharray:none"
       id="rect5355"
       width="719.9906"
       height="719.99176"
       x="14.146708"
       y="-16.171663" />
    <path
       style="fill:none;stroke:#ffffff;stroke-width:65;stroke-linecap:butt;stroke-linejoin:miter;stroke-miterlimit:4;stroke-opacity:1;stroke-dasharray:none"
       d="M -154.14928,58.148055 666.09458,878.39191"
       id="path5363"
       inkscape:connector-curvature="0" />
    <path
       style="fill:none;stroke:#ffffff;stroke-width:65;stroke-linecap:butt;stroke-linejoin:miter;stroke-miterlimit:4;stroke-opacity:1;stroke-dasharray:none"
       d="M 333.7544,584.2355 840.04285,77.947046"
       id="path5365"
       inkscape:connector-curvature="0" />
    <path
       style="fill:url(#linearGradient5367);fill-opacity:1;stroke:url(#linearGradient5272-0);stroke-width:30;stroke-miterlimit:4;stroke-opacity:1;stroke-dasharray:none"
       d="m 66.568166,235.56672 -51.485576,-51.51414 0,-99.485858 0,-99.485843 202.49504,0 202.49502,0 -150.99006,151.000001 c -83.04453,83.05 -150.99879,151 -151.00945,151 -0.0106,0 -23.187908,-23.18136 -51.504974,-51.51416 z"
       id="path5627"
       inkscape:connector-curvature="0" />
    <path
       style="fill:url(#linearGradient5367);fill-opacity:1;stroke:url(#linearGradient5272-0);stroke-width:30;stroke-miterlimit:4;stroke-opacity:1;stroke-dasharray:none"
       d="M 243.57829,412.57663 137.08488,306.06928 297.58836,145.57507 458.09185,-14.919121 l 137.49536,0 137.49538,0 0,75.503906 0,75.503905 -191.50544,191.49765 -191.50546,191.49765 -106.4934,-106.50736 0,0 z"
       id="path5629"
       inkscape:connector-curvature="0" />
    <path
       style="fill:url(#linearGradient5367);fill-opacity:1;stroke:url(#linearGradient5272-0);stroke-width:30;stroke-miterlimit:4;stroke-opacity:1;stroke-dasharray:none"
       d="m 465.57485,634.57329 -68.48601,-68.5076 167.99688,-167.98794 167.99687,-167.98795 0,236.49553 0,236.49554 -99.51088,0 -99.51086,0 -68.486,-68.50758 0,0 z"
       id="path5631"
       inkscape:connector-curvature="0" />
    <path
       style="fill:url(#linearGradient5367);fill-opacity:1;stroke:url(#linearGradient5272-0);stroke-width:30;stroke-miterlimit:4;stroke-opacity:1;stroke-dasharray:none"
       d="m 15.08259,565.56059 0,-137.52026 37.009426,-36.96887 37.009426,-36.96887 174.489148,174.48914 174.48914,174.48914 -211.49858,0 -211.49856,0 0,-137.52028 z"
       id="path5633"
       inkscape:connector-curvature="0" />
    <path
       style="fill:url(#linearGradient5367);fill-opacity:1;stroke:url(#linearGradient5272-0);stroke-width:30;stroke-miterlimit:4;stroke-opacity:1;stroke-dasharray:none"
       d="m 15.08259,335.08088 0,-54.98182 27.49091,27.49091 27.490908,27.49091 -27.490908,27.49091 -27.49091,27.4909 0,-54.98181 z"
       id="path5635"
       inkscape:connector-curvature="0" />
    <path
       style="fill:url(#linearGradient5367);stroke:url(#linearGradient5367);stroke-width:15;stroke-linecap:butt;stroke-linejoin:miter;stroke-miterlimit:4;stroke-opacity:1;stroke-dasharray:none"
       d="M -62.225396,488.06898 562.857,-137.01341"
       id="path5375"
       inkscape:connector-curvature="0" />
  </g>
  <g
     inkscape:groupmode="layer"
     id="layer6"
     inkscape:label="Filled Pin"
     transform="translate(0,30)">
    <path
       sodipodi:type="arc"
       style="fill:url(#linearGradient5367);fill-opacity:1;stroke:url(#linearGradient5272-0);stroke-width:30;stroke-miterlimit:4;stroke-opacity:1;stroke-dasharray:none"
       id="path5520"
       sodipodi:cx="1186.5251"
       sodipodi:cy="28.449572"
       sodipodi:rx="108.89445"
       sodipodi:ry="108.89445"
       d="m 1295.4196,28.449572 a 108.89445,108.89445 0 1 1 -217.7889,0 108.89445,108.89445 0 1 1 217.7889,0 z"
       transform="translate(-684.47936,137.97421)" />
    <path
       style="fill:none;stroke:url(#linearGradient5272-0);stroke-width:30;stroke-linecap:butt;stroke-linejoin:miter;stroke-miterlimit:4;stroke-opacity:1;stroke-dasharray:none"
       d="M 604.57634,203.19333 501.33874,565.23201"
       id="path5548"
       inkscape:connector-curvature="0" />
    <path
       style="fill:none;stroke:url(#linearGradient5272-0-0);stroke-width:30;stroke-linecap:butt;stroke-linejoin:miter;stroke-miterlimit:4;stroke-opacity:1;stroke-dasharray:none"
       d="m 400.22244,203.19333 103.2376,362.03868"
       id="path5548-6"
       inkscape:connector-curvature="0" />
    <path
       style="fill:none;stroke:url(#linearGradient5367);stroke-width:5.54066706;stroke-linecap:butt;stroke-linejoin:miter;stroke-miterlimit:4;stroke-opacity:1;stroke-dasharray:none"
       d="m 418.10032,200.63361 81.71902,286.57602"
       id="path5548-6-5"
       inkscape:connector-curvature="0" />
    <path
       style="fill:none;stroke:url(#linearGradient5367-8);stroke-width:5.57126808;stroke-linecap:butt;stroke-linejoin:miter;stroke-miterlimit:4;stroke-opacity:1;stroke-dasharray:none"
       d="M 589.4696,191.76279 507.3032,479.90772"
       id="path5548-6-5-1"
       inkscape:connector-curvature="0" />
    <path
       sodipodi:type="arc"
       style="fill:url(#linearGradient5272-0);fill-opacity:1;stroke:url(#linearGradient5414);stroke-width:10;stroke-miterlimit:4;stroke-opacity:1;stroke-dasharray:none"
       id="path5701"
       sodipodi:cx="1182.2826"
       sodipodi:cy="27.742464"
       sodipodi:rx="32.880466"
       sodipodi:ry="31.112698"
       d="m 1215.1631,27.742464 a 32.880466,31.112698 0 1 1 -65.761,0 32.880466,31.112698 0 1 1 65.761,0 z"
       transform="translate(-679.88316,138.32776)" />
    <path
       style="fill:url(#linearGradient5367);fill-opacity:1;stroke:url(#linearGradient5367);stroke-width:14.14213562;stroke-miterlimit:4;stroke-opacity:1;stroke-dasharray:none"
       d=""
       id="path5707"
       inkscape:connector-curvature="0" />
    <path
       style="fill:url(#linearGradient5367);fill-opacity:1;stroke:url(#linearGradient5367);stroke-width:12;stroke-miterlimit:4;stroke-dasharray:none"
       d="m 480.59476,438.56141 c -0.13019,-0.23853 -2.23221,-7.47329 -4.67117,-16.07723 l -4.43446,-15.64354 43.209,-43.21117 c 23.76495,-23.76615 43.25891,-43.16128 43.3199,-43.10029 0.061,0.061 -3.58603,13.04561 -8.10448,28.85471 l -8.21536,28.74382 -30.43336,30.4337 c -16.73835,16.73854 -30.53988,30.23854 -30.67007,30 l 0,0 z"
       id="path3935"
       inkscape:connector-curvature="0"
       transform="translate(0,-30)" />
    <path
       style="fill:url(#linearGradient5367);fill-opacity:1;stroke:url(#linearGradient5367);stroke-width:10;stroke-miterlimit:4;stroke-dasharray:none"
       d="m 496.9074,495.91382 -4.54249,-15.95763 14.21599,-14.16424 c 8.25798,-8.22793 14.06851,-13.66674 13.8641,-12.9772 -0.19353,0.65287 -3.92194,13.68207 -8.28535,28.95378 -5.85474,20.49133 -8.22176,28.07362 -9.03377,28.93796 -0.60517,0.64417 -1.22984,1.16981 -1.38815,1.16809 -0.15831,-10e-4 -2.33196,-7.18406 -4.83033,-15.96076 l 0,0 z"
       id="path3937"
       inkscape:connector-curvature="0"
       transform="translate(0,-30)" />
    <path
       style="fill:url(#linearGradient5367);fill-opacity:1;stroke:url(#linearGradient5367);stroke-width:11.75;stroke-miterlimit:4;stroke-dasharray:none"
       d="m 490.69989,319.56922 c -16.91625,-2.04939 -28.37861,-5.26061 -42.04751,-11.77973 l -6.29751,-3.00348 -6.82804,-24.07915 c -3.75542,-13.24353 -6.82779,-24.2503 -6.82749,-24.45949 3e-4,-0.20918 2.8693,2.51148 6.37555,6.04592 3.50625,3.53444 8.27758,7.83175 10.60297,9.54958 11.77036,8.69512 25.45165,14.62615 39.96727,17.32637 6.72937,1.2518 22.03612,1.51201 29.05476,0.49391 23.54208,-3.41493 42.19976,-13.52217 58.63869,-31.76575 1.84872,-2.05168 3.35328,-3.40168 3.34346,-3 -0.01,0.40167 -3.13053,11.60687 -6.93491,24.90044 l -6.91707,24.17014 -2.69009,1.53769 c -6.5297,3.73246 -18.53232,8.37522 -27.69008,10.71086 -10.10735,2.57782 -15.24146,3.19894 -28,3.38742 -6.6,0.0975 -12.7875,0.0819 -13.75,-0.0347 l 0,2e-5 z"
       id="path3939"
       inkscape:connector-curvature="0"
       transform="translate(0,-30)" />
  </g>
</svg>
