<?xml version="1.0" encoding="UTF-8" standalone="no"?>
<!-- Created with Inkscape (http://www.inkscape.org/) -->

<svg
   xmlns:osb="http://www.openswatchbook.org/uri/2009/osb"
   xmlns:dc="http://purl.org/dc/elements/1.1/"
   xmlns:cc="http://creativecommons.org/ns#"
   xmlns:rdf="http://www.w3.org/1999/02/22-rdf-syntax-ns#"
   xmlns:svg="http://www.w3.org/2000/svg"
   xmlns="http://www.w3.org/2000/svg"
   xmlns:xlink="http://www.w3.org/1999/xlink"
   xmlns:sodipodi="http://sodipodi.sourceforge.net/DTD/sodipodi-0.dtd"
   xmlns:inkscape="http://www.inkscape.org/namespaces/inkscape"
   width="720"
   height="720"
   id="svg2"
   version="1.1"
   inkscape:version="0.48.4 r9939"
   inkscape:export-filename="/home/moss/Desktop/map fill.png"
   inkscape:export-xdpi="90"
   inkscape:export-ydpi="90"
   sodipodi:docname="MAP filled.svg.2016_04_20_16_30_46.0.svg">
  <defs
     id="defs4">
    <linearGradient
       id="linearGradient5367"
       osb:paint="solid"
       gradientTransform="matrix(7.3110537,0,0,7.3110537,-24861.502,-2080.2657)">
      <stop
         style="stop-color:#ffffff;stop-opacity:1;"
         offset="0"
         id="stop5369" />
    </linearGradient>
    <linearGradient
       id="linearGradient5282"
       osb:paint="solid">
      <stop
         style="stop-color:#24a0d8;stop-opacity:1;"
         offset="0"
         id="stop5284" />
    </linearGradient>
    <linearGradient
       id="linearGradient5272"
       osb:paint="solid"
       gradientTransform="matrix(0.09496351,0,0,0.09496351,1096.5223,544.96174)">
      <stop
         style="stop-color:#1954a6;stop-opacity:1;"
         offset="0"
         id="stop5274" />
    </linearGradient>
    <linearGradient
       inkscape:collect="always"
       xlink:href="#linearGradient5272"
       id="linearGradient5276"
       x1="-1157.6928"
       y1="-344.28571"
       x2="-485.16423"
       y2="-344.28571"
       gradientUnits="userSpaceOnUse" />
    <linearGradient
       inkscape:collect="always"
       xlink:href="#linearGradient5282"
       id="linearGradient5286"
       x1="-851.97859"
       y1="-534.28571"
       x2="-599.45002"
       y2="-534.28571"
       gradientUnits="userSpaceOnUse" />
    <linearGradient
       id="linearGradient5272-0"
       osb:paint="solid"
       gradientTransform="matrix(1182.2386,0,0,1182.2386,-801898.39,-209309.22)">
      <stop
         style="stop-color:#1954a6;stop-opacity:1;"
         offset="0"
         id="stop5274-1" />
    </linearGradient>
    <linearGradient
       id="linearGradient5414"
       osb:paint="solid"
       gradientTransform="translate(-2,54)">
      <stop
         style="stop-color:#1954a6;stop-opacity:1;"
         offset="0"
         id="stop5416" />
    </linearGradient>
    <linearGradient
       id="linearGradient5272-0-0"
       osb:paint="solid"
       gradientTransform="matrix(-36.944955,0,0,36.944955,26873.592,-6528.2156)">
      <stop
         style="stop-color:#1954a6;stop-opacity:1;"
         offset="0"
         id="stop5274-1-5" />
    </linearGradient>
    <linearGradient
       id="linearGradient5272-0-0-3"
       osb:paint="solid"
       gradientTransform="matrix(-36.944955,0,0,36.944955,27583.892,-6730.1033)">
      <stop
         style="stop-color:#1954a6;stop-opacity:1;"
         offset="0"
         id="stop5274-1-5-5" />
    </linearGradient>
    <linearGradient
       id="linearGradient5367-8"
       osb:paint="solid"
       gradientTransform="matrix(-235.23456,0,0,235.23456,831333.63,-99758.085)">
      <stop
         style="stop-color:#ffffff;stop-opacity:1;"
         offset="0"
         id="stop5369-6" />
    </linearGradient>
    <linearGradient
       id="linearGradient5272-8"
       osb:paint="solid"
       gradientTransform="matrix(-0.79504474,0,0,0.79504474,-1593.7863,240.46164)">
      <stop
         style="stop-color:#1954a6;stop-opacity:1;"
         offset="0"
         id="stop5274-9" />
    </linearGradient>
  </defs>
  <sodipodi:namedview
     id="base"
     pagecolor="#ffffff"
     bordercolor="#666666"
     borderopacity="1.0"
     inkscape:pageopacity="0.0"
     inkscape:pageshadow="2"
     inkscape:zoom="0.70710678"
     inkscape:cx="251.3501"
     inkscape:cy="442.92721"
     inkscape:document-units="px"
     inkscape:current-layer="layer6"
     showgrid="false"
     inkscape:window-width="1855"
     inkscape:window-height="1056"
     inkscape:window-x="65"
     inkscape:window-y="24"
     inkscape:window-maximized="1" />
  <metadata
     id="metadata7">
    <rdf:RDF>
      <cc:Work
         rdf:about="">
        <dc:format>image/svg+xml</dc:format>
        <dc:type
           rdf:resource="http://purl.org/dc/dcmitype/StillImage" />
        <dc:title></dc:title>
      </cc:Work>
    </rdf:RDF>
  </metadata>
  <g
     inkscape:groupmode="layer"
     id="layer2"
     inkscape:label="Filled Background"
     style="display:inline">
    <rect
       style="fill:url(#linearGradient5272);fill-opacity:1;stroke:#24a0d8;stroke-width:0;stroke-miterlimit:4;stroke-opacity:1;stroke-dasharray:none"
       id="rect5355"
       width="719.9906"
       height="719.99176"
       x="0.0045729335"
       y="0.0034036487" />
    <path
       style="fill:none;stroke:#ffffff;stroke-width:65;stroke-linecap:butt;stroke-linejoin:miter;stroke-opacity:1;stroke-miterlimit:4;stroke-dasharray:none"
       d="M -155.56349,92.089181 664.68037,912.33304"
       id="path5363"
       inkscape:connector-curvature="0" />
    <path
       style="fill:none;stroke:#ffffff;stroke-width:65;stroke-linecap:butt;stroke-linejoin:miter;stroke-opacity:1;stroke-miterlimit:4;stroke-dasharray:none"
       d="M 333.7544,584.2355 840.04285,77.947046"
       id="path5365"
       inkscape:connector-curvature="0" />
    <path
       style="fill:url(#linearGradient5367);stroke:url(#linearGradient5367);stroke-width:25;stroke-linecap:butt;stroke-linejoin:miter;stroke-opacity:1;stroke-miterlimit:4;stroke-dasharray:none"
       d="M -62.225396,488.06898 562.857,-137.01341"
       id="path5375"
       inkscape:connector-curvature="0" />
    <path
       style="fill:#1954a6;fill-opacity:1;stroke:url(#linearGradient5272);stroke-width:1.85;stroke-miterlimit:4;stroke-dasharray:none"
       d="m 476.461,441.41432 -10.07039,-35.41687 30.86687,-30.87613 c 16.97678,-16.98188 30.9318,-30.68136 31.01115,-30.44329 0.0794,0.23806 -7.93919,28.73004 -17.81899,63.3155 l -17.96328,62.88267 -2.97749,2.97749 -2.97749,2.97749 -10.07038,-35.41686 0,0 z"
       id="path3952"
       inkscape:connector-curvature="0" />
  </g>
  <g
     inkscape:groupmode="layer"
     id="layer6"
     inkscape:label="Filled Pin">
    <path
       sodipodi:type="arc"
       style="fill:#1954a6;fill-opacity:1;stroke:url(#linearGradient5272-0-0);stroke-width:20;stroke-miterlimit:4;stroke-opacity:1;stroke-dasharray:none"
       id="path5520"
       sodipodi:cx="1186.5251"
       sodipodi:cy="28.449572"
       sodipodi:rx="108.89445"
       sodipodi:ry="108.89445"
       d="m 1295.4196,28.449572 a 108.89445,108.89445 0 1 1 -217.7889,0 108.89445,108.89445 0 1 1 217.7889,0 z"
       transform="translate(-698.6215,154.14928)" />
    <path
       style="fill:url(#linearGradient5414);stroke:url(#linearGradient5414);stroke-width:20;stroke-linecap:butt;stroke-linejoin:miter;stroke-miterlimit:4;stroke-opacity:1;stroke-dasharray:none"
       d="M 590.4342,219.3684 487.1966,581.40708"
       id="path5548"
       inkscape:connector-curvature="0" />
    <path
       style="fill:none;stroke:url(#linearGradient5414);stroke-width:20;stroke-linecap:butt;stroke-linejoin:miter;stroke-miterlimit:4;stroke-opacity:1;stroke-dasharray:none"
       d="M 386.0803,219.3684 489.3179,581.40708"
       id="path5548-6"
       inkscape:connector-curvature="0" />
    <path
       sodipodi:type="arc"
       style="fill:url(#linearGradient5272-0-0);fill-opacity:1;stroke:url(#linearGradient5272-0-0);stroke-width:10;stroke-miterlimit:4;stroke-opacity:1;stroke-dasharray:none"
       id="path5701"
       sodipodi:cx="1182.2826"
       sodipodi:cy="27.742464"
       sodipodi:rx="32.880466"
       sodipodi:ry="31.112698"
       d="m 1215.1631,27.742464 a 32.880466,31.112698 0 1 1 -65.761,0 32.880466,31.112698 0 1 1 65.761,0 z"
       transform="translate(-694.0253,154.50283)" />
    <path
       style="fill:url(#linearGradient5367);fill-opacity:1;stroke:url(#linearGradient5367);stroke-width:14.14213562;stroke-miterlimit:4;stroke-opacity:1;stroke-dasharray:none"
       d=""
       id="path5707"
       inkscape:connector-curvature="0" />
    <path
       style="fill:none;stroke:url(#linearGradient5272);stroke-width:15.19416046;stroke-linecap:butt;stroke-linejoin:miter;stroke-miterlimit:4;stroke-opacity:1;stroke-dasharray:none"
       d="M 575.40872,208.87857 496.97828,483.92226"
       id="path5548-9"
       inkscape:connector-curvature="0" />
    <path
       style="fill:none;stroke:url(#linearGradient5272-8);stroke-width:15.90089607;stroke-linecap:butt;stroke-linejoin:miter;stroke-miterlimit:4;stroke-opacity:1;stroke-dasharray:none"
       d="m 402.58983,212.33152 82.07853,287.83696"
       id="path5548-9-2"
       inkscape:connector-curvature="0" />
    <path
       style="fill:#1954a6;fill-opacity:1;stroke:url(#linearGradient5272);stroke-width:2.72500033;stroke-miterlimit:4;stroke-dasharray:none"
       d="m 482.37511,301.11016 c -15.72664,-0.74012 -33.39147,-5.30173 -46.86037,-12.10081 l -2.91269,-1.47032 -3.93451,-13.81238 c -2.16398,-7.59681 -3.82464,-13.92225 -3.69035,-14.05654 0.13429,-0.13429 1.12251,0.46503 2.19604,1.33182 7.02692,5.67364 19.80142,12.49066 29.32391,15.64849 19.82349,6.57382 42.64194,6.58488 62.70102,0.0304 10.57768,-3.45636 24.63003,-11.25454 31.65948,-17.56906 1.90606,-1.71221 2.61878,-2.12957 2.42982,-1.42289 -0.14707,0.55 -2.04376,7.28136 -4.21487,14.95857 l -3.94748,13.95856 -6,2.8641 c -11.60018,5.53734 -21.91479,8.67681 -34.25,10.4247 -6.83759,0.96889 -16.56853,1.49452 -22.5,1.21537 z"
       id="path3956"
       inkscape:connector-curvature="0" />
    <path
       style="fill:url(#linearGradient5367-8);fill-opacity:1;stroke:url(#linearGradient5367-8);stroke-width:2.29999999999999982;stroke-miterlimit:4;stroke-dasharray:none"
       d="m 444.042,383.84881 c -23.98956,-84.16145 -45.45606,-158.74837 -47.70334,-165.74873 -6.04535,-18.83155 -7.70335,-32.40785 -5.70357,-46.70295 3.0925,-22.10613 10.95015,-39.02539 25.34482,-54.57296 10.00269,-10.80383 17.83192,-16.70636 29.87499,-22.523031 15.16596,-7.324993 23.41627,-9.071719 42.51739,-9.001628 15.11229,0.05545 19.27396,0.594743 28.6775,3.716165 30.71223,10.19466 54.52805,33.987674 64.09196,64.030584 4.3234,13.58104 5.8109,31.99992 3.6045,44.63276 -0.87486,5.00905 -19.79343,72.74696 -42.04127,150.52871 -22.24784,77.78175 -43.33308,151.60369 -46.85609,164.04877 -3.52301,12.44508 -6.80688,23.0742 -7.29749,23.62027 -0.4906,0.54607 -20.51984,-67.86651 -44.5094,-152.02796 l 0,0 z m 45.85154,91.39815 3.4285,-3.77553 -3.84465,2.71487 c -2.11455,1.49318 -3.86464,3.19216 -3.88908,3.77552 -0.073,1.74157 0.70246,1.25257 4.30523,-2.71486 l 0,0 z m -2.93546,-1.09076 c 0,-0.343 -0.6364,-1.01696 -1.41422,-1.49768 -0.77781,-0.48072 -1.41421,-0.20008 -1.41421,0.62364 0,0.82373 0.6364,1.49768 1.41421,1.49768 0.77782,0 1.41422,-0.28063 1.41422,-0.62364 z m -2.34042,-5.80131 c -0.46058,-1.20027 -1.14073,-1.87901 -1.51144,-1.5083 -0.3707,0.3707 -0.25453,1.35275 0.25817,2.18231 1.39449,2.25632 2.20954,1.81799 1.25327,-0.67401 l 0,0 z m 10.8257,-3.64146 c 0,-0.77782 -0.6364,-1.02091 -1.41421,-0.54019 -0.77782,0.48072 -1.41422,1.51042 -1.41422,2.28824 0,0.77782 0.6364,1.02091 1.41422,0.54019 0.77781,-0.48072 1.41421,-1.51042 1.41421,-2.28824 z m -11.31371,-0.45672 c 0,-0.343 -0.63639,-1.01696 -1.41421,-1.49768 -0.77782,-0.48072 -1.41422,-0.20008 -1.41422,0.62364 0,0.82372 0.6364,1.49768 1.41422,1.49768 0.77782,0 1.41421,-0.28064 1.41421,-0.62364 z m 12.72792,-3.619 c 0,-0.77782 -0.28064,-1.41422 -0.62364,-1.41422 -0.34301,0 -1.01696,0.6364 -1.49768,1.41422 -0.48072,0.77782 -0.20007,1.41421 0.62365,1.41421 0.82372,0 1.49767,-0.63639 1.49767,-1.41421 z m -15.06833,-2.18232 c -0.46059,-1.20027 -1.14074,-1.87901 -1.51145,-1.5083 -0.3707,0.37071 -0.25452,1.35275 0.25818,2.18232 1.39448,2.25632 2.20954,1.81798 1.25327,-0.67402 l 0,0 z m 16.48255,-3.64146 c 0,-0.77781 -0.6364,-1.0209 -1.41422,-0.54018 -0.77781,0.48072 -1.41421,1.51042 -1.41421,2.28824 0,0.77781 0.6364,1.0209 1.41421,0.54018 0.77782,-0.48071 1.41422,-1.51042 1.41422,-2.28824 z m -16.97057,-0.45672 c 0,-0.343 -0.63639,-1.01696 -1.41421,-1.49768 -0.77782,-0.48072 -1.41421,-0.20008 -1.41421,0.62364 0,0.82373 0.63639,1.49768 1.41421,1.49768 0.77782,0 1.41421,-0.28063 1.41421,-0.62364 z m 18.38478,-3.619 c 0,-0.77781 -0.28064,-1.41421 -0.62364,-1.41421 -0.34301,0 -1.01696,0.6364 -1.49768,1.41421 -0.48072,0.77782 -0.20008,1.41422 0.62364,1.41422 0.82373,0 1.49768,-0.6364 1.49768,-1.41422 z m -19.79899,-2.03785 c 0,-0.343 -0.6364,-1.01696 -1.41421,-1.49768 -0.77782,-0.48072 -1.41422,-0.20008 -1.41422,0.62364 0,0.82372 0.6364,1.49768 1.41422,1.49768 0.77781,0 1.41421,-0.28064 1.41421,-0.62364 z m 21.2132,-3.78592 c 0,-0.77782 -0.63639,-1.02091 -1.41421,-0.54019 -0.77782,0.48072 -1.41421,1.51042 -1.41421,2.28824 0,0.77782 0.63639,1.02091 1.41421,0.54019 0.77782,-0.48072 1.41421,-1.51042 1.41421,-2.28824 l 0,0 z m -22.62741,-0.45672 c 0,-0.343 -0.6364,-1.01696 -1.41422,-1.49768 -0.77781,-0.48072 -1.41421,-0.20008 -1.41421,0.62364 0,0.82372 0.6364,1.49768 1.41421,1.49768 0.77782,0 1.41422,-0.28064 1.41422,-0.62364 z m 24.04163,-3.619 c 0,-0.77782 -0.28064,-1.41422 -0.62365,-1.41422 -0.343,0 -1.01695,0.6364 -1.49767,1.41422 -0.48072,0.77782 -0.20008,1.41421 0.62364,1.41421 0.82372,0 1.49768,-0.63639 1.49768,-1.41421 z m -25.45585,-2.03785 c 0,-0.34301 -0.63639,-1.01697 -1.41421,-1.49769 -0.77782,-0.48071 -1.41421,-0.20008 -1.41421,0.62364 0,0.82373 0.63639,1.49768 1.41421,1.49768 0.77782,0 1.41421,-0.28063 1.41421,-0.62363 z m 26.87006,-3.78593 c 0,-0.77781 -0.6364,-1.0209 -1.41421,-0.54018 -0.77782,0.48072 -1.41422,1.51042 -1.41422,2.28824 0,0.77781 0.6364,1.0209 1.41422,0.54018 0.77781,-0.48071 1.41421,-1.51042 1.41421,-2.28824 z m -28.28427,-0.45672 c 0,-0.343 -0.6364,-1.01696 -1.41421,-1.49768 -0.77782,-0.48072 -1.41422,-0.20008 -1.41422,0.62364 0,0.82373 0.6364,1.49768 1.41422,1.49768 0.77781,0 1.41421,-0.28063 1.41421,-0.62364 z m 29.69848,-3.619 c 0,-0.77781 -0.28063,-1.41421 -0.62364,-1.41421 -0.343,0 -1.01696,0.6364 -1.49768,1.41421 -0.48071,0.77782 -0.20007,1.41422 0.62365,1.41422 0.82372,0 1.49767,-0.6364 1.49767,-1.41422 z m -31.11269,-2.03785 c 0,-0.343 -0.6364,-1.01696 -1.41422,-1.49768 -0.77781,-0.48072 -1.41421,-0.20008 -1.41421,0.62364 0,0.82372 0.6364,1.49768 1.41421,1.49768 0.77782,0 1.41422,-0.28064 1.41422,-0.62364 z m 32.52691,-3.619 c 0,-0.77782 -0.28064,-1.41421 -0.62365,-1.41421 -0.343,0 -1.01695,0.63639 -1.49767,1.41421 -0.48072,0.77782 -0.20008,1.41421 0.62364,1.41421 0.82372,0 1.49768,-0.63639 1.49768,-1.41421 z m -33.94113,-0.62364 c 0,-0.343 -0.63639,-1.01696 -1.41421,-1.49768 -0.77782,-0.48072 -1.41421,-0.20008 -1.41421,0.62364 0,0.82372 0.63639,1.49768 1.41421,1.49768 0.77782,0 1.41421,-0.28064 1.41421,-0.62364 z m 35.35534,-3.619 c 0,-0.77782 -0.28064,-1.41421 -0.62364,-1.41421 -0.34301,0 -1.01696,0.63639 -1.49768,1.41421 -0.48072,0.77782 -0.20008,1.41421 0.62365,1.41421 0.82372,0 1.49767,-0.63639 1.49767,-1.41421 z m -36.76955,-2.03785 c 0,-0.34301 -0.6364,-1.01697 -1.41421,-1.49769 -0.77782,-0.48071 -1.41422,-0.20008 -1.41422,0.62364 0,0.82373 0.6364,1.49769 1.41422,1.49769 0.77781,0 1.41421,-0.28064 1.41421,-0.62364 z m 38.18377,-3.61901 c 0,-0.77781 -0.28064,-1.41421 -0.62365,-1.41421 -0.343,0 -1.01696,0.6364 -1.49768,1.41421 -0.48071,0.77782 -0.20007,1.41422 0.62365,1.41422 0.82372,0 1.49768,-0.6364 1.49768,-1.41422 z m -39.59798,-0.62364 c 0,-0.343 -0.6364,-1.01696 -1.41422,-1.49768 -0.77782,-0.48072 -1.41421,-0.20008 -1.41421,0.62364 0,0.82373 0.63639,1.49768 1.41421,1.49768 0.77782,0 1.41422,-0.28063 1.41422,-0.62364 z m 41.01219,-3.619 c 0,-0.77781 -0.28064,-1.41421 -0.62365,-1.41421 -0.343,0 -1.01695,0.6364 -1.49767,1.41421 -0.48072,0.77782 -0.20008,1.41422 0.62364,1.41422 0.82372,0 1.49768,-0.6364 1.49768,-1.41422 z m -42.42641,-2.03785 c 0,-0.343 -0.63639,-1.01696 -1.41421,-1.49768 -0.77782,-0.48072 -1.41422,-0.20008 -1.41422,0.62364 0,0.82372 0.6364,1.49768 1.41422,1.49768 0.77782,0 1.41421,-0.28064 1.41421,-0.62364 z m 27.8335,-33.46613 c 16.46607,-16.41593 30.54982,-29.4692 31.29722,-29.00729 1.16083,0.71743 3.64206,-4.70921 2.62037,-5.73092 -0.19918,-0.19916 -14.96496,14.25106 -32.81285,32.1116 -17.84789,17.86056 -32.13399,32.47374 -31.74688,32.47374 0.3871,0 14.17607,-13.43121 30.64214,-29.84713 z m 17.42134,25.60449 c 0,-0.77782 -0.28064,-1.41421 -0.62365,-1.41421 -0.343,0 -1.01696,0.63639 -1.49767,1.41421 -0.48072,0.77782 -0.20008,1.41421 0.62364,1.41421 0.82372,0 1.49768,-0.63639 1.49768,-1.41421 z m 1.41421,-5.65686 c 0,-0.77781 -0.28064,-1.41421 -0.62364,-1.41421 -0.34301,0 -1.01696,0.6364 -1.49768,1.41421 -0.48072,0.77782 -0.20008,1.41422 0.62364,1.41422 0.82372,0 1.49768,-0.6364 1.49768,-1.41422 z m 1.41421,-4.24264 c 0,-0.77781 -0.28064,-1.41421 -0.62364,-1.41421 -0.34301,0 -1.01696,0.6364 -1.49768,1.41421 -0.48072,0.77782 -0.20007,1.41422 0.62365,1.41422 0.82372,0 1.49767,-0.6364 1.49767,-1.41422 z m 1.41422,-5.65685 c 0,-0.77782 -0.28064,-1.41421 -0.62365,-1.41421 -0.343,0 -1.01696,0.63639 -1.49767,1.41421 -0.48072,0.77782 -0.20008,1.41421 0.62364,1.41421 0.82372,0 1.49768,-0.63639 1.49768,-1.41421 z m 1.41421,-4.94975 c 0,-1.16672 -0.25011,-2.12132 -0.5558,-2.12132 -0.30569,0 -0.92212,0.9546 -1.36983,2.12132 -0.44772,1.16673 -0.1976,2.12132 0.5558,2.12132 0.75341,0 1.36983,-0.95459 1.36983,-2.12132 z m 1.41421,-4.94975 c 0,-0.77781 -0.28064,-1.41421 -0.62364,-1.41421 -0.34301,0 -1.01696,0.6364 -1.49768,1.41421 -0.48071,0.77782 -0.20007,1.41422 0.62365,1.41422 0.82372,0 1.49767,-0.6364 1.49767,-1.41422 z m 1.41422,-4.94974 c 0,-1.16673 -0.25011,-2.12132 -0.5558,-2.12132 -0.30569,0 -0.92212,0.95459 -1.36983,2.12132 -0.44772,1.16672 -0.19761,2.12132 0.5558,2.12132 0.7534,0 1.36983,-0.9546 1.36983,-2.12132 z m 1.41421,-4.94975 c 0,-0.77782 -0.28064,-1.41421 -0.62364,-1.41421 -0.34301,0 -1.01696,0.63639 -1.49768,1.41421 -0.48072,0.77782 -0.20008,1.41421 0.62364,1.41421 0.82373,0 1.49768,-0.63639 1.49768,-1.41421 z m 1.41421,-5.03321 c 0,-1.21264 -0.63639,-1.81147 -1.41421,-1.33075 -0.77782,0.48072 -1.41421,1.47287 -1.41421,2.20479 0,0.73191 0.63639,1.33074 1.41421,1.33074 0.77782,0 1.41421,-0.99215 1.41421,-2.20478 z m 1.41422,-4.86629 c 0,-0.77781 -0.28064,-1.41421 -0.62365,-1.41421 -0.343,0 -1.01695,0.6364 -1.49767,1.41421 -0.48072,0.77782 -0.20008,1.41422 0.62364,1.41422 0.82372,0 1.49768,-0.6364 1.49768,-1.41422 z m 1.41421,-5.03321 c 0,-1.21263 -0.64677,-1.80505 -1.43728,-1.31649 -0.7905,0.48855 -1.07115,1.48071 -0.62364,2.20479 1.21232,1.96157 2.06092,1.59581 2.06092,-0.8883 z m -28.66729,-49.56133 c -0.46993,-0.46993 -1.68969,-0.52016 -2.71057,-0.11158 -1.12817,0.45145 -0.79306,0.78656 0.85442,0.85441 1.49082,0.0614 2.32609,-0.27284 1.85615,-0.74277 l 0,-6e-5 z M 425.37939,259.9171 c 0.44751,-0.72407 0.16686,-1.71623 -0.62364,-2.20478 -0.79051,-0.48856 -1.43728,0.10386 -1.43728,1.31649 0,2.48411 0.8486,2.84987 2.06092,0.88829 l 0,0 z m 129.46094,-4.34036 c 0,-0.77782 -0.28064,-1.41421 -0.62364,-1.41421 -0.343,0 -1.01696,0.63639 -1.49768,1.41421 -0.48072,0.77782 -0.20008,1.41422 0.62364,1.41422 0.82372,0 1.49768,-0.6364 1.49768,-1.41422 z m -48.79037,-40.6647 c 17.2929,-8.95105 25.20566,-30.13337 17.56324,-47.01654 -3.75949,-8.30526 -8.8577,-13.55522 -17.56324,-18.08601 -5.79599,-3.01652 -8.98367,-3.67673 -17.67767,-3.66124 -6.45512,0.0114 -12.58421,0.88076 -15.6592,2.22088 -23.55235,10.2644 -30.13791,41.20689 -12.53005,58.87285 4.72851,4.74412 10.36704,8.19679 16.86639,10.32789 6.24461,2.04757 22.8501,0.52572 29.00053,-2.65783 z"
       id="path3973"
       inkscape:connector-curvature="0" />
  </g>
</svg>
