<?xml version="1.0" encoding="UTF-8" standalone="no"?>
<!-- Created with Inkscape (http://www.inkscape.org/) -->

<svg
   xmlns:osb="http://www.openswatchbook.org/uri/2009/osb"
   xmlns:dc="http://purl.org/dc/elements/1.1/"
   xmlns:cc="http://creativecommons.org/ns#"
   xmlns:rdf="http://www.w3.org/1999/02/22-rdf-syntax-ns#"
   xmlns:svg="http://www.w3.org/2000/svg"
   xmlns="http://www.w3.org/2000/svg"
   xmlns:xlink="http://www.w3.org/1999/xlink"
   xmlns:sodipodi="http://sodipodi.sourceforge.net/DTD/sodipodi-0.dtd"
   xmlns:inkscape="http://www.inkscape.org/namespaces/inkscape"
   width="720"
   height="720"
   id="svg2"
   version="1.1"
   inkscape:version="0.48.4 r9939"
   inkscape:export-filename="/home/moss/Desktop/ey.png"
   inkscape:export-xdpi="90"
   inkscape:export-ydpi="90"
   sodipodi:docname="New document 1">
  <defs
     id="defs4">
    <linearGradient
       id="linearGradient5367"
       osb:paint="solid"
       gradientTransform="matrix(7.3110537,0,0,7.3110537,-25749.28,-2024.7509)">
      <stop
         style="stop-color:#ffffff;stop-opacity:1;"
         offset="0"
         id="stop5369" />
    </linearGradient>
    <linearGradient
       id="linearGradient5282"
       osb:paint="solid">
      <stop
         style="stop-color:#24a0d8;stop-opacity:1;"
         offset="0"
         id="stop5284" />
    </linearGradient>
    <linearGradient
       id="linearGradient5272"
       osb:paint="solid"
       gradientTransform="translate(3080.6424,249.36248)">
      <stop
         style="stop-color:#1954a6;stop-opacity:1;"
         offset="0"
         id="stop5274" />
    </linearGradient>
    <linearGradient
       inkscape:collect="always"
       xlink:href="#linearGradient5272"
       id="linearGradient5276"
       x1="-1157.6928"
       y1="-344.28571"
       x2="-485.16423"
       y2="-344.28571"
       gradientUnits="userSpaceOnUse" />
    <linearGradient
       inkscape:collect="always"
       xlink:href="#linearGradient5282"
       id="linearGradient5286"
       x1="-851.97859"
       y1="-534.28571"
       x2="-599.45002"
       y2="-534.28571"
       gradientUnits="userSpaceOnUse" />
    <linearGradient
       id="linearGradient5272-0"
       osb:paint="solid"
       gradientTransform="matrix(591.11928,0,0,591.11928,-401415.8,-104754.85)">
      <stop
         style="stop-color:#1954a6;stop-opacity:1;"
         offset="0"
         id="stop5274-1" />
    </linearGradient>
    <linearGradient
       id="linearGradient5414"
       osb:paint="solid"
       gradientTransform="translate(-2,54)">
      <stop
         style="stop-color:#1954a6;stop-opacity:1;"
         offset="0"
         id="stop5416" />
    </linearGradient>
    <linearGradient
       id="linearGradient5272-0-0"
       osb:paint="solid"
       gradientTransform="matrix(-36.944955,0,0,36.944955,26873.592,-6528.2156)">
      <stop
         style="stop-color:#1954a6;stop-opacity:1;"
         offset="0"
         id="stop5274-1-5" />
    </linearGradient>
    <linearGradient
       id="linearGradient5272-0-0-3"
       osb:paint="solid"
       gradientTransform="matrix(-36.944955,0,0,36.944955,27583.892,-6730.1033)">
      <stop
         style="stop-color:#1954a6;stop-opacity:1;"
         offset="0"
         id="stop5274-1-5-5" />
    </linearGradient>
    <linearGradient
       id="linearGradient5367-8"
       osb:paint="solid"
       gradientTransform="matrix(-235.23456,0,0,235.23456,831341.41,-99765.863)">
      <stop
         style="stop-color:#ffffff;stop-opacity:1;"
         offset="0"
         id="stop5369-6" />
    </linearGradient>
  </defs>
  <sodipodi:namedview
     id="base"
     pagecolor="#ffffff"
     bordercolor="#666666"
     borderopacity="1.0"
     inkscape:pageopacity="0.0"
     inkscape:pageshadow="2"
     inkscape:zoom="0.5"
     inkscape:cx="212.00001"
     inkscape:cy="389.41666"
     inkscape:document-units="px"
     inkscape:current-layer="layer2"
     showgrid="false"
     inkscape:window-width="1855"
     inkscape:window-height="1056"
     inkscape:window-x="65"
     inkscape:window-y="24"
     inkscape:window-maximized="1" />
  <metadata
     id="metadata7">
    <rdf:RDF>
      <cc:Work
         rdf:about="">
        <dc:format>image/svg+xml</dc:format>
        <dc:type
           rdf:resource="http://purl.org/dc/dcmitype/StillImage" />
        <dc:title></dc:title>
      </cc:Work>
    </rdf:RDF>
  </metadata>
  <g
     inkscape:groupmode="layer"
     id="layer2"
     inkscape:label="Filled Background"
     style="display:inline">
    <rect
       style="fill:url(#linearGradient5272);fill-opacity:1;stroke:#24a0d8;stroke-width:0;stroke-miterlimit:4;stroke-opacity:1;stroke-dasharray:none"
       id="rect5355"
       width="719.9906"
       height="719.99176"
       x="0.0045729335"
       y="0.0034036487" />
    <path
       style="fill:none;stroke:#ffffff;stroke-width:65;stroke-linecap:butt;stroke-linejoin:miter;stroke-opacity:1;stroke-miterlimit:4;stroke-dasharray:none"
       d="M -155.56349,92.089181 664.68037,912.33304"
       id="path5363"
       inkscape:connector-curvature="0" />
    <path
       style="fill:none;stroke:#ffffff;stroke-width:65;stroke-linecap:butt;stroke-linejoin:miter;stroke-opacity:1;stroke-miterlimit:4;stroke-dasharray:none"
       d="M 333.7544,584.2355 840.04285,77.947046"
       id="path5365"
       inkscape:connector-curvature="0" />
    <path
       style="fill:url(#linearGradient5367);stroke:url(#linearGradient5367);stroke-width:25;stroke-linecap:butt;stroke-linejoin:miter;stroke-opacity:1;stroke-miterlimit:4;stroke-dasharray:none"
       d="M -62.225396,488.06898 562.857,-137.01341"
       id="path5375"
       inkscape:connector-curvature="0" />
    <path
       style="fill:url(#linearGradient5367);fill-opacity:1;stroke:url(#linearGradient5272-0);stroke-width:10;stroke-miterlimit:4;stroke-opacity:1;stroke-dasharray:none"
       d="m 52.42603,251.74179 -51.48557591,-51.51414 0,-99.48586 0,-99.4858431 202.49503591,0 202.49502,0 L 254.94045,152.25595 c -83.04453,83.05 -150.99879,151 -151.00945,151 -0.0106,0 -23.187904,-23.18136 -51.50497,-51.51416 z"
       id="path5627"
       inkscape:connector-curvature="0" />
    <path
       style="fill:url(#linearGradient5367);fill-opacity:1;stroke:url(#linearGradient5272-0);stroke-width:10;stroke-miterlimit:4;stroke-opacity:1;stroke-dasharray:none"
       d="M 229.43615,428.7517 122.94274,322.24435 283.44622,161.75014 443.94971,1.2559469 l 137.49536,0 137.49538,0 0,75.5039061 0,75.503907 -191.50544,191.49765 -191.50546,191.49765 -106.4934,-106.50736 0,0 z"
       id="path5629"
       inkscape:connector-curvature="0" />
    <path
       style="fill:url(#linearGradient5367);fill-opacity:1;stroke:url(#linearGradient5272-0);stroke-width:10;stroke-miterlimit:4;stroke-opacity:1;stroke-dasharray:none"
       d="m 451.43271,650.74836 -68.48601,-68.5076 167.99688,-167.98794 167.99687,-167.98795 0,236.49553 0,236.49554 -99.51088,0 -99.51086,0 -68.486,-68.50758 0,0 z"
       id="path5631"
       inkscape:connector-curvature="0" />
    <path
       style="fill:url(#linearGradient5367);fill-opacity:1;stroke:url(#linearGradient5272-0);stroke-width:10;stroke-miterlimit:4;stroke-opacity:1;stroke-dasharray:none"
       d="m 0.94045409,581.73566 0,-137.52026 L 37.94988,407.24653 74.959306,370.27766 249.44845,544.7668 l 174.48914,174.48914 -211.49858,0 -211.49855591,0 0,-137.52028 z"
       id="path5633"
       inkscape:connector-curvature="0" />
    <path
       style="fill:url(#linearGradient5367);fill-opacity:1;stroke:url(#linearGradient5272-0);stroke-width:10;stroke-miterlimit:4;stroke-opacity:1;stroke-dasharray:none"
       d="m 0.94045409,351.25595 0,-54.98182 27.49090991,27.49091 27.490908,27.49091 -27.490908,27.49091 -27.49090991,27.4909 0,-54.98181 z"
       id="path5635"
       inkscape:connector-curvature="0" />
  </g>
  <g
     inkscape:groupmode="layer"
     id="layer6"
     inkscape:label="Filled Pin">
    <path
       sodipodi:type="arc"
       style="fill:url(#linearGradient5367);fill-opacity:1;stroke:url(#linearGradient5272-0);stroke-width:10;stroke-miterlimit:4;stroke-opacity:1;stroke-dasharray:none"
       id="path5520"
       sodipodi:cx="1186.5251"
       sodipodi:cy="28.449572"
       sodipodi:rx="108.89445"
       sodipodi:ry="108.89445"
       d="m 1295.4196,28.449572 a 108.89445,108.89445 0 1 1 -217.7889,0 108.89445,108.89445 0 1 1 217.7889,0 z"
       transform="translate(-698.6215,154.14928)" />
    <path
       style="fill:none;stroke:url(#linearGradient5272-0);stroke-width:10;stroke-linecap:butt;stroke-linejoin:miter;stroke-miterlimit:4;stroke-opacity:1;stroke-dasharray:none"
       d="M 590.4342,219.3684 487.1966,581.40708"
       id="path5548"
       inkscape:connector-curvature="0" />
    <path
       style="fill:none;stroke:url(#linearGradient5272-0-0);stroke-width:10;stroke-linecap:butt;stroke-linejoin:miter;stroke-miterlimit:4;stroke-opacity:1;stroke-dasharray:none"
       d="M 386.0803,219.3684 489.3179,581.40708"
       id="path5548-6"
       inkscape:connector-curvature="0" />
    <path
       style="fill:none;stroke:url(#linearGradient5367);stroke-width:5.54066706;stroke-linecap:butt;stroke-linejoin:miter;stroke-miterlimit:4;stroke-opacity:1;stroke-dasharray:none"
       d="m 392.73636,215.34421 81.71902,286.57602"
       id="path5548-6-5"
       inkscape:connector-curvature="0" />
    <path
       style="fill:none;stroke:url(#linearGradient5367-8);stroke-width:5.57126808;stroke-linecap:butt;stroke-linejoin:miter;stroke-miterlimit:4;stroke-opacity:1;stroke-dasharray:none"
       d="m 585.55538,208.23201 -82.1664,288.14493"
       id="path5548-6-5-1"
       inkscape:connector-curvature="0" />
    <path
       style="fill:url(#linearGradient5367);fill-opacity:1;stroke:url(#linearGradient5367);stroke-width:7.936;stroke-miterlimit:4;stroke-opacity:1;stroke-dasharray:none"
       d="m 479.7334,294.51608 c -0.5833,-0.0657 -2.7312,-0.2954 -4.773,-0.51048 -23.5157,-2.47721 -47.9043,-13.97364 -64.394,-30.35435 l -3.7597,-3.73483 -1.9856,-7.0777 c -1.092,-3.89274 -1.9855,-7.20222 -1.9855,-7.3544 0,-0.15219 1.2695,1.31688 2.8212,3.2646 13.1372,16.49015 31.917,29.10135 52.1436,35.01596 9.7244,2.84356 16.4473,3.87317 27.0983,4.15011 18.2595,0.47477 33.4486,-2.75885 49.2819,-10.49164 10.9896,-5.36719 19.3142,-11.33068 28.1176,-20.14276 3.2141,-3.2172 7.0292,-7.39071 8.478,-9.27448 1.4488,-1.88376 2.6639,-3.3952 2.7002,-3.35875 0.2035,0.2041 -4.1515,14.81595 -4.6363,15.55582 -0.8483,1.2947 -8.7776,8.3905 -12.8041,11.45828 -17.1647,13.07755 -37.2353,20.87974 -58.4481,22.72101 -3.7467,0.32521 -15.3794,0.41226 -17.8545,0.13361 z"
       id="path5685"
       inkscape:connector-curvature="0" />
    <rect
       style="fill:url(#linearGradient5367);fill-opacity:1;stroke:url(#linearGradient5367);stroke-width:10;stroke-miterlimit:4;stroke-opacity:1;stroke-dasharray:none"
       id="rect5689"
       width="13.081475"
       height="13.435029"
       x="403.75803"
       y="230.68211"
       ry="3.5267856" />
    <rect
       style="fill:url(#linearGradient5367);fill-opacity:1;stroke:url(#linearGradient5367);stroke-width:10;stroke-miterlimit:4;stroke-opacity:1;stroke-dasharray:none"
       id="rect5691"
       width="7.4246211"
       height="10.960155"
       x="564.27124"
       y="231.03566"
       ry="3.5267856" />
    <path
       sodipodi:type="arc"
       style="fill:url(#linearGradient5272-0);fill-opacity:1;stroke:url(#linearGradient5414);stroke-width:10;stroke-miterlimit:4;stroke-opacity:1;stroke-dasharray:none"
       id="path5701"
       sodipodi:cx="1182.2826"
       sodipodi:cy="27.742464"
       sodipodi:rx="32.880466"
       sodipodi:ry="31.112698"
       d="m 1215.1631,27.742464 a 32.880466,31.112698 0 1 1 -65.761,0 32.880466,31.112698 0 1 1 65.761,0 z"
       transform="translate(-694.0253,154.50283)" />
    <path
       style="fill:url(#linearGradient5367);fill-opacity:1;stroke:url(#linearGradient5367);stroke-width:14.14213562;stroke-miterlimit:4;stroke-opacity:1;stroke-dasharray:none"
       d=""
       id="path5707"
       inkscape:connector-curvature="0" />
    <path
       style="fill:url(#linearGradient5367);fill-opacity:1;stroke:url(#linearGradient5367);stroke-width:3.77312183;stroke-miterlimit:4;stroke-opacity:1;stroke-dasharray:none"
       d="m 452.96048,418.21308 -1.51969,-5.17591 50.33105,-50.35282 c 27.68207,-27.69406 50.41826,-50.26561 50.52486,-50.15901 0.1066,0.1066 -0.94585,4.18366 -2.33877,9.06014 l -2.53259,8.86633 -46.47259,46.46858 -46.47258,46.46859 -1.51969,-5.1759 z"
       id="path5711"
       inkscape:connector-curvature="0" />
    <path
       style="fill:url(#linearGradient5367);fill-opacity:1;stroke:url(#linearGradient5367);stroke-width:11.6;stroke-miterlimit:4;stroke-opacity:1;stroke-dasharray:none"
       d="m 474.38862,491.14056 c -0.77734,-2.74975 -1.41333,-5.15139 -1.41333,-5.33699 0,-0.1856 9.5625,-9.89945 21.25,-21.58634 11.6875,-11.6869 21.25,-21.16238 21.25,-21.05663 0,0.10576 -1.18152,4.32426 -2.62559,9.37445 l -2.62559,9.18218 -17.21108,17.21144 -17.21108,17.21144 -1.41333,-4.99955 z"
       id="path5713"
       inkscape:connector-curvature="0" />
  </g>
</svg>
